<svg xmlns="http://www.w3.org/2000/svg" xmlns:xlink="http://www.w3.org/1999/xlink" width="120" height="34" viewBox="0 0 120 34"><defs><path id="v6xub" d="M976.22 48.36a2.96 2.96 0 0 1-2.4-1 4.4 4.4 0 0 1-.84-2.85c0-3.2 2.12-3.87 3.9-3.87 1.77 0 2.87.52 3.18.67v5.81a7.78 7.78 0 0 1-3.84 1.24zM971 44.5a5.8 5.8 0 0 0 1.4 4.05 4.71 4.71 0 0 0 3.51 1.46 9 9 0 0 0 4.15-1.01v.8H982v-9.6a12.47 12.47 0 0 0-5.28-1.19c-3.48 0-5.72 2.16-5.72 5.49z"/><path id="v6xuc" d="M924.82 42.6c-3.47-.7-4.1-1.45-4.1-2.68 0-1.3 1.3-2.2 3.16-2.2 1.62 0 3.03.48 4.52 1.61l1.2-1.46a8.74 8.74 0 0 0-5.67-1.87c-3.04 0-5.25 1.7-5.25 4.06 0 1.23.42 2.12 1.32 2.8.83.63 2.1 1.1 4.01 1.49 3.33.64 3.93 1.38 3.93 2.6 0 1.4-1.33 2.33-3.32 2.33-2.02 0-3.64-.6-5.35-2.08L918 48.59a9.7 9.7 0 0 0 6.55 2.41c1.56 0 2.91-.4 3.9-1.14A3.72 3.72 0 0 0 930 46.8c0-2.21-1.55-3.47-5.18-4.2"/><path id="v6xua" d="M883 51h119V17H883z"/><path id="v6xue" d="M932 39h2v-2h-2z"/><path id="v6xuf" d="M932 51h2V40h-2z"/><path id="v6xug" d="M945.99 44.5c0-2.18 1.22-3.9 4.01-3.9 2.8 0 4.01 1.72 4.01 3.9 0 2.18-1.22 3.9-4.01 3.9-2.8 0-4.01-1.72-4.01-3.9zm-1.99 0c0 3.08 2.13 5.5 6 5.5s6-2.42 6-5.5-2.13-5.5-6-5.5-6 2.42-6 5.5z"/><path id="v6xuh" d="M920.98 29.91V18.78h2.66c3.69 0 6.27 2.3 6.27 5.58 0 3.34-2.7 5.86-6.27 5.86-1.2 0-2.27-.22-2.66-.3zM923.64 17H919v14.23c.1.03 2.6.77 4.64.77a9.2 9.2 0 0 0 6.02-2.36A6.94 6.94 0 0 0 932 24.4a7 7 0 0 0-2.33-5.27 8.94 8.94 0 0 0-6.03-2.13z"/><path id="v6xui" d="M954.84 22.2a4.42 4.42 0 0 0-3.24-1.2c-3.34 0-5.51 1.17-5.6 1.22V32h1.93v-8.68a7.54 7.54 0 0 1 3.2-.63c.91 0 1.67.28 2.17.81s.77 1.3.77 2.23V32H956v-6.66c0-1.28-.4-2.36-1.16-3.13"/><path id="v6xuj" d="M976.94 30.05v-6.57a6.7 6.7 0 0 1 3.2-.72c2.57 0 3.88 1.4 3.88 4.16 0 2.67-1.15 4.14-3.23 4.14-1.24 0-2.34-.2-3.85-1.01zM980.3 21c-2.9 0-4.98 1.12-5.29 1.28V36h1.94v-3.96c1.45.58 2.44.77 3.86.77 3.2 0 5.2-2.27 5.2-5.91 0-1.82-.53-3.33-1.54-4.35a5.68 5.68 0 0 0-4.17-1.55z"/><path id="v6xuk" d="M987 32h2V18h-2z"/><path id="v6xul" d="M1000.88 21l-3.6 8.5-4.08-8.5H991l5.29 10.54-.02.02c-.62 1.31-1.22 1.8-2.19 1.8-.68 0-1.2-.1-1.86-.43l-.7 1.48c.97.43 1.72.59 2.63.59 1.83 0 2.98-.88 3.95-3.03L1003 21z"/><path id="v6xum" d="M958 18v11.03c0 1.07.27 1.86.8 2.37.53.5 1.17.6 1.62.6a3.5 3.5 0 0 0 1.58-.37l-.52-1.49c-.24.13-.46.19-.67.19-.47 0-1.05 0-1.05-1.5v-6.06h1.76v-1.63h-1.76V18z"/><path id="v6xun" d="M940.7 39a6.2 6.2 0 0 0-3.7 1.05V50h1.84v-8.8a3.23 3.23 0 0 1 1.86-.57c1.13 0 1.8.38 2.5.8l.8-1.51c-1-.58-1.87-.92-3.3-.92"/><path id="v6xuo" d="M935.02 25.71c.18-1.79 1.03-3.1 3.48-3.1 2.44 0 3.3 1.31 3.47 3.1zm8.94 1.63l.04-.73c.06-3.16-1.63-5.61-5.5-5.61s-5.5 2.44-5.5 5.5c0 3.8 3.2 5.5 5.84 5.5a6.2 6.2 0 0 0 4.82-2.08l-1.25-1.03a4.83 4.83 0 0 1-3.57 1.5c-2.03 0-3.47-1.18-3.82-3.05z"/><path id="v6xup" d="M966.84 40.2a4.41 4.41 0 0 0-3.24-1.2c-3.34 0-5.51 1.17-5.6 1.22V50h1.93v-8.68a7.55 7.55 0 0 1 3.2-.63c.91 0 1.67.28 2.17.81s.77 1.3.77 2.23V50H968v-6.66c0-1.28-.4-2.36-1.16-3.13"/><path id="v6xuq" d="M969.24 25.62c-1.42-.4-2.76-.77-2.76-1.64 0-.87.84-1.42 2.05-1.42a6.6 6.6 0 0 1 3.37 1.06l.91-1.39a8.24 8.24 0 0 0-4.24-1.23c-2.34 0-3.97 1.26-3.97 3.14 0 2.05 2.21 2.63 3.83 3.05 1.48.38 2.7.73 2.7 1.73 0 .9-.88 1.52-2.19 1.52a6.93 6.93 0 0 1-3.93-1.38L964 30.37a8.41 8.41 0 0 0 4.85 1.63c1.15 0 2.2-.3 2.93-.84a2.87 2.87 0 0 0 1.22-2.4c0-2.11-2.26-2.74-3.76-3.14"/><path id="v6xur" d="M890.67 17H883v2.63c0 6.16 1.73 8.87 11.88 11.35 7.08 1.5 11.75 3.37 13.4 8.02.43-1.6.7-2.8.72-5 .06-10.01-7.54-17-18.33-17"/><path id="v6xus" d="M904 43.97c0-3.6-1.9-5.1-10.96-7.11-5.55-1.24-7.82-2.59-10.04-3.86v15.03c3.04 1.85 7.38 2.97 9.66 2.97 7.64 0 11.34-3.33 11.34-7.03"/><clipPath id="v6xud"><use xlink:href="#v6xua"/></clipPath></defs><g><g transform="translate(-883 -17)"><g><use fill="#040201" xlink:href="#v6xub"/></g><g><use fill="#040201" xlink:href="#v6xuc"/></g><g/><g clip-path="url(#v6xud)"><use fill="#040201" xlink:href="#v6xue"/></g><g clip-path="url(#v6xud)"><use fill="#040201" xlink:href="#v6xuf"/></g><g clip-path="url(#v6xud)"><use fill="#040201" xlink:href="#v6xug"/></g><g clip-path="url(#v6xud)"><use fill="#040201" xlink:href="#v6xuh"/></g><g clip-path="url(#v6xud)"><use fill="#040201" xlink:href="#v6xui"/></g><g clip-path="url(#v6xud)"><use fill="#040201" xlink:href="#v6xuj"/></g><g clip-path="url(#v6xud)"><use fill="#040201" xlink:href="#v6xuk"/></g><g clip-path="url(#v6xud)"><use fill="#040201" xlink:href="#v6xul"/></g><g clip-path="url(#v6xud)"><use fill="#040201" xlink:href="#v6xum"/></g><g clip-path="url(#v6xud)"><use fill="#040201" xlink:href="#v6xun"/></g><g clip-path="url(#v6xud)"><use fill="#040201" xlink:href="#v6xuo"/></g><g clip-path="url(#v6xud)"><use fill="#040201" xlink:href="#v6xup"/></g><g clip-path="url(#v6xud)"><use fill="#040201" xlink:href="#v6xuq"/></g><g clip-path="url(#v6xud)"><use fill="#040201" xlink:href="#v6xur"/></g><g clip-path="url(#v6xud)"><use fill="#040201" xlink:href="#v6xus"/></g></g></g></svg>